<svg width="20" height="16" viewBox="0 0 20 16" fill="none" xmlns="http://www.w3.org/2000/svg">
<path d="M3.91436 0H15.3576C17.5185 0.00244329 19.2695 1.75349 19.272 3.91411V12.0857C19.2695 14.2465 17.5185 15.9976 15.3578 16H3.91435C1.75348 15.9976 0.00242405 14.2465 0 12.0859V3.91435C0.00244329 1.75347 1.75374 0.00242405 3.91436 0ZM15.3576 14.7152C16.8093 14.7138 17.9857 13.5374 17.9872 12.0858V3.91438C17.9857 2.4627 16.8093 1.28629 15.3578 1.28483H3.91438C2.4627 1.28629 1.28629 2.4627 1.28482 3.91423V12.0857C1.28629 13.5374 2.4627 14.7138 3.91423 14.7152H15.3576ZM5.72163 3.68823L14.3469 8.00003L5.72165 12.3118L5.72163 3.68823ZM11.4716 8.00003L7.00647 5.7679V10.233L11.4716 8.00003Z" fill="#FFFCFC"/>
</svg>
