<svg width="5" height="5" viewBox="0 0 5 5" fill="none" xmlns="http://www.w3.org/2000/svg">
<path d="M4.10173 1.44767H0.723835C0.591132 1.44767 0.482556 1.33909 0.482556 1.20639C0.482556 1.07369 0.591132 0.965113 0.723835 0.965113H4.10173C4.23443 0.965113 4.34301 1.07369 4.34301 1.20639C4.34301 1.33909 4.23443 1.44767 4.10173 1.44767ZM3.61917 0H1.20639C1.07369 0 0.965113 0.108575 0.965113 0.241278C0.965113 0.373981 1.07369 0.482556 1.20639 0.482556H3.61917C3.75188 0.482556 3.86045 0.373981 3.86045 0.241278C3.86045 0.108575 3.75188 0 3.61917 0ZM4.82556 2.41278V4.34301C4.82556 4.60841 4.60841 4.82556 4.34301 4.82556H0.482556C0.21715 4.82556 0 4.60841 0 4.34301V2.41278C0 2.14738 0.21715 1.93023 0.482556 1.93023H4.34301C4.60841 1.93023 4.82556 2.14738 4.82556 2.41278ZM3.18246 3.27173L1.93023 2.58892V4.16446L3.18246 3.48406C3.26691 3.43822 3.26691 3.31758 3.18246 3.27173Z" fill="white"/>
</svg>
